Coordinates
version=1
nRows=9
nColumns=24
inDegrees=yes

Units are S.I. units (second, meters, Newtons, ...)
Angles are in degrees.

endheader
time	torso_tilt	torso_list	torso_rotation	torso_tx	torso_ty	torso_tz	lumbar_extension	lumbar_bending	lumbar_rotation	hip_flexion_r	hip_adduction_r	hip_rotation_r	knee_angle_r	ankle_angle_r	subtalar_angle_r	mtp_angle_r	hip_flexion_l	hip_adduction_l	hip_rotation_l	knee_angle_l	ankle_angle_l	subtalar_angle_l	mtp_angle_l
     29.19000000	    -14.63640402	     -1.33877970	     13.39481917	     -0.06326132	      1.28795321	      0.02640129	      7.15413727	      2.25055933	     -6.50417126	     -9.90113070	      2.34716517	     -8.68717146	    -25.70547121	    -23.09901100	     -2.11421354	      0.00000000	     27.58946221	      8.21039246	      2.73767572	    -25.53168880	     16.83517098	      5.71344215	      0.00000000
     29.20000000	    -14.58226665	     -1.34242460	     13.46601537	     -0.06310693	      1.28636402	      0.02495931	      6.98796420	      1.87765013	     -6.34803390	     -9.36971479	      2.75961578	     -8.63846606	    -29.20850292	    -23.30886999	     -0.91711038	      0.00000000	     26.77196527	      8.15303876	      4.37898977	    -20.47233408	     16.83172306	      4.59517682	      0.00000000
     29.21000000	    -14.45798590	     -1.48436030	     13.49020949	     -0.06283954	      1.28382739	      0.02379953	      6.93355008	      1.80855751	     -5.85306422	     -9.08358251	      3.11005827	     -8.94148043	    -32.59623037	    -22.92473409	      0.19902127	      0.00000000	     25.80014068	      8.23685129	      6.13479690	    -15.98995079	     16.70987340	      2.50789836	      0.00000000
     29.22000000	    -14.37315633	     -1.61876263	     13.41666283	     -0.06278323	      1.28010635	      0.02254403	      7.01535795	      1.78760059	     -5.32983989	     -8.75889747	      3.34951074	     -9.23369419	    -36.24753358	    -22.27443926	      0.91955801	      0.00000000	     24.88591967	      8.33310609	      7.57900933	    -12.40386558	     16.30228873	      1.77856727	      0.00000000
     29.23000000	    -14.33021421	     -1.71847110	     13.29576695	     -0.06300643	      1.27528098	      0.02111047	      7.41405765	      1.73736654	     -4.87581256	     -8.67507175	      3.43692933	     -9.66389202	    -39.95710638	    -21.61399683	      0.92493598	      0.00000000	     23.90709303	      8.44977185	      8.75181803	     -9.96279039	     16.08659366	      0.10854623	      0.00000000
     29.24000000	    -14.18698178	     -1.85218630	     13.11302312	     -0.06327884	      1.26954975	      0.01980189	      7.93911267	      1.85798137	     -4.34667192	     -8.83854772	      3.36381413	    -10.22029602	    -43.62803278	    -21.21006000	      0.32593010	      0.00000000	     23.01690078	      8.71930469	      9.47304422	     -8.99325524	     16.07588146	     -0.77556108	      0.00000000
     29.25000000	    -14.06184834	     -1.95999502	     12.86191836	     -0.06382685	      1.26285891	      0.01842916	      8.51565883	      1.96632058	     -3.83109966	     -8.88798801	      3.16025825	    -10.79805192	    -47.50534806	    -20.89234887	     -0.78847020	      0.00000000	     22.46442276	      9.00721272	      9.76880930	     -9.47418175	     16.23726978	     -0.48611579	      0.00000000
     29.26000000	    -13.93983020	     -2.05543561	     12.53957949	     -0.06452649	      1.25544606	      0.01708856	      9.23811606	      2.23754954	     -3.17792478	     -9.06750566	      2.57664779	    -11.76023050	    -51.40328956	    -20.49754589	     -2.00091615	      0.00000000	     22.05096987	      9.51650174	     10.01210865	    -11.33727123	     15.19021857	     -0.02842082	      0.00000000
     29.27000000	    -13.82850408	     -2.13576617	     12.16140598	     -0.06535490	      1.24718552	      0.01572498	     10.09045625	      2.66945354	     -2.54567417	     -9.30116058	      1.62617694	    -12.78965149	    -55.41880129	    -19.82625898	     -3.30672608	      0.00000000	     21.76635100	     10.22404545	      9.92708972	    -14.44907691	     11.65302613	     -1.36645338	      0.00000000
